<?xml version="1.0" encoding="UTF-8"?><svg width="20px" height="20px" viewBox="0 0 20 20" version="1.1" xmlns="http://www.w3.org/2000/svg" xmlns:xlink="http://www.w3.org/1999/xlink">    <title>Icons / Media Controls / Mute / Dark BG - 24 Filled</title>    <g id="Page-1" stroke="none" stroke-width="1" fill="none" fill-rule="evenodd">        <g id="1.3-ICONS-/-On-Dark" transform="translate(-839.000000, -6522.000000)" fill="#FFFFFF">            <g id="Group" transform="translate(836.000000, 6520.000000)">                <g id="Group-6" transform="translate(3.000000, 2.000000)">                    <path d="M11.0742,0.6748 C10.5122,0.4418 9.8702,0.5708 9.4392,0.9998 L4.9392,5.4998 L0.0002,5.4998 L0.0002,14.4998 L4.9392,14.4998 L9.4392,18.9998 C9.7272,19.2878 10.1092,19.4408 10.4992,19.4408 C10.6922,19.4408 10.8872,19.4028 11.0742,19.3248 C11.6362,19.0918 12.0002,18.5478 12.0002,17.9398 L12.0002,2.0608 C12.0002,1.4518 11.6362,0.9078 11.0742,0.6748" id="Fill-2"></path>                    <polygon id="Fill-4" points="19.8584 7.8789 18.7974 6.8179 16.6764 8.9399 14.5554 6.8179 13.4954 7.8789 15.6164 9.9999 13.4954 12.1209 14.5554 13.1819 16.6764 11.0609 18.7974 13.1819 19.8584 12.1209 17.7374 9.9999"></polygon>                </g>            </g>        </g>    </g></svg>