<?xml version="1.0" encoding="UTF-8"?><svg width="12px" height="18px" viewBox="0 0 12 18" version="1.1" xmlns="http://www.w3.org/2000/svg" xmlns:xlink="http://www.w3.org/1999/xlink">    <title>Icons / Media Controls / Pause / Dark BG - 24 Filled</title>    <g id="Page-1" stroke="none" stroke-width="1" fill="none" fill-rule="evenodd">        <g id="1.3-ICONS-/-On-Dark" transform="translate(-917.000000, -6523.000000)">            <g id="Group" transform="translate(911.000000, 6520.000000)">                <g id="Group-10" transform="translate(6.000000, 3.000000)">                    <path d="M9.75,17.25 L9.75,17.25 C8.922,17.25 8.25,16.578 8.25,15.75 L8.25,2.25 C8.25,1.422 8.922,0.75 9.75,0.75 C10.578,0.75 11.25,1.422 11.25,2.25 L11.25,15.75 C11.25,16.578 10.578,17.25 9.75,17.25" id="Fill-2" fill="#FFFFFF"></path>                    <path d="M9.75,17.25 L9.75,17.25 C8.922,17.25 8.25,16.578 8.25,15.75 L8.25,2.25 C8.25,1.422 8.922,0.75 9.75,0.75 C10.578,0.75 11.25,1.422 11.25,2.25 L11.25,15.75 C11.25,16.578 10.578,17.25 9.75,17.25 Z" id="Stroke-4" stroke="#FFFFFF" stroke-width="1.5"></path>                    <path d="M2.25,17.25 L2.25,17.25 C1.422,17.25 0.75,16.578 0.75,15.75 L0.75,2.25 C0.75,1.422 1.422,0.75 2.25,0.75 C3.078,0.75 3.75,1.422 3.75,2.25 L3.75,15.75 C3.75,16.578 3.078,17.25 2.25,17.25" id="Fill-6" fill="#FFFFFF"></path>                    <path d="M2.25,17.25 L2.25,17.25 C1.422,17.25 0.75,16.578 0.75,15.75 L0.75,2.25 C0.75,1.422 1.422,0.75 2.25,0.75 C3.078,0.75 3.75,1.422 3.75,2.25 L3.75,15.75 C3.75,16.578 3.078,17.25 2.25,17.25 Z" id="Stroke-8" stroke="#FFFFFF" stroke-width="1.5"></path>                </g>            </g>        </g>    </g></svg>